<?xml version="1.0" encoding="utf-8"?>
<svg fill="#000000" width="800px" height="800px" viewBox="0 0 100 100" enable-background="new 0 0 100 100" xmlns="http://www.w3.org/2000/svg">
  <defs>
    <linearGradient gradientUnits="userSpaceOnUse" x1="49" y1="18.9" x2="49" y2="78.9" id="gradient-1">
      <stop offset="0" style="stop-color: rgba(13, 109, 253, 1)"/>
      <stop offset="1" style="stop-color: rgba(1, 66, 163, 1)"/>
    </linearGradient>
  </defs>
  <path d="M56.5,38.3c0-1-0.9-1.9-1.9-1.9H43.4c-1,0-1.9,0.9-1.9,1.9V72c0,1,0.9,1.9,1.9,1.9h11.2c1,0,1.9-0.9,1.9-1.9 V38.3z M34,38.3c0-1-0.9-1.9-1.9-1.9H20.9c-1,0-1.9,0.9-1.9,1.9V77c0,1,0.9,1.9,1.9,1.9h11.2c1,0,1.9-0.9,1.9-1.9V38.3z M79,38.3 c0-1-0.9-1.9-1.9-1.9H65.9c-1,0-1.9,0.9-1.9,1.9V67c0,1,0.9,1.9,1.9,1.9h11.2c1,0,1.9-0.9,1.9-1.9V38.3z M79,20.8 c0-1-0.9-1.9-1.9-1.9H20.9c-1,0-1.9,0.9-1.9,1.9V27c0,1,0.9,1.9,1.9,1.9h56.2c1,0,1.9-0.9,1.9-1.9V20.8z" style="fill: url(#gradient-1); stroke: rgb(255, 255, 255);"/>
</svg>