<?xml version="1.0" encoding="utf-8"?>
<svg viewBox="0 0 500 500" xmlns="http://www.w3.org/2000/svg">
  <defs>
    <linearGradient gradientUnits="userSpaceOnUse" x1="237.884" y1="98.01" x2="237.884" y2="435.384" id="gradient-0" gradientTransform="matrix(1.175312, 0, 0, 1.177328, -28.687786, -12.630329)">
      <stop offset="0" style="stop-color: rgba(7, 61, 141, 1)"/>
      <stop offset="1" style="stop-color: rgba(2, 19, 44, 1)"/>
    </linearGradient>
  </defs>
  <path fill-rule="nonzero" d="M 149.818 264.495 C 152.72 256.648 157.149 254.102 162.987 254.263 L 159.138 251.777 C 157.053 226.369 43.693 129.409 138.297 95.319 C 124.164 -37.69 367.878 66.051 321.694 110.167 C 417.206 121.523 382.801 222.75 330.435 257.492 L 330.175 259.642 C 331.921 259.125 333.669 258.794 335.343 258.669 C 338.636 258.422 341.788 258.948 344.473 260.333 C 347.419 261.865 349.669 264.342 350.823 267.85 C 351.935 271.207 351.979 275.494 350.521 280.763 L 343.543 300.024 C 342.416 303.153 341.381 305.351 339.132 307.092 C 336.811 308.875 334.006 309.545 329.662 309.317 C 328.943 309.283 328.22 309.206 327.518 309.08 C 327.171 313.809 326.094 318.461 324.321 322.878 C 321.914 328.898 318.562 333.81 315.261 338.343 C 311.525 343.458 307.572 348.092 303.447 352.253 C 306.66 363.234 310.804 371.327 315.774 377.482 C 341 395.137 408.94 399.288 432.595 412.125 C 466.743 430.725 465.804 466.678 473.285 499.959 L 28.513 499.959 C 35.923 466.973 35.157 430.43 69.202 412.125 C 99.19 395.873 162.822 396.912 188.18 375.851 C 191.828 370.287 194.912 363.623 197.274 355.677 C 191.862 350.197 186.79 343.686 182.168 336.127 L 181.855 335.645 C 177.685 328.829 172.646 320.603 171.066 309.18 L 169.711 309.206 C 166.869 309.172 164.133 308.538 161.57 307.127 C 157.453 304.843 154.569 300.953 152.623 296.565 L 152.449 296.125 C 150.261 290.976 149.261 285.108 149.026 280.67 C 148.94 279.012 148.94 275.721 149.036 272.577 L 149.036 272.536 C 149.105 269.837 149.252 267.224 149.46 265.762 C 149.531 265.315 149.643 264.892 149.818 264.495 Z M 308.728 385.98 L 308.18 385.347 C 302.769 379.014 298.208 371.015 294.595 360.589 C 288.695 365.282 282.016 369.264 274.831 372.223 L 274.458 372.384 L 274.45 372.384 C 265.137 376.341 255.521 378.253 245.99 378.04 C 240.821 377.931 235.688 377.194 230.642 375.835 L 230.449 375.783 C 222.188 373.644 213.979 369.788 206.127 363.894 C 202.894 372.96 198.699 380.468 193.79 386.665 L 223.256 456.709 L 240.57 417.847 L 232.117 408.86 C 225.766 399.821 229.461 389.329 239.719 387.713 C 244.202 387.011 262.339 386.909 266.491 387.992 C 275.788 390.411 278.559 400.65 273.112 408.86 L 264.659 417.847 L 281.825 456.709 L 308.728 385.98 Z M 206.76 350.307 L 207.108 350.595 C 220.444 363.007 235.218 367.675 249.249 367.142 C 266.171 366.49 282.163 358.374 293.422 347.146 C 293.778 346.79 294.185 346.469 294.647 346.224 C 298.817 342.156 302.82 337.522 306.599 332.35 C 309.5 328.365 312.438 324.079 314.409 319.15 C 316.329 314.346 317.425 308.724 316.825 301.807 C 316.754 300.691 317.023 299.542 317.703 298.545 C 319.313 296.16 322.6 295.499 325.05 297.064 C 325.979 297.657 326.926 298.148 327.873 298.485 C 328.691 298.772 329.48 298.95 330.201 298.984 C 331.722 299.059 332.407 299.059 332.503 298.984 C 332.669 298.865 333.007 297.977 333.511 296.583 L 340.277 277.93 C 341.138 274.784 341.199 272.517 340.704 271.013 C 340.451 270.253 340.009 269.738 339.471 269.459 C 338.67 269.043 337.498 268.899 336.135 269.001 C 333.164 269.222 329.69 270.625 326.605 272.899 C 325.476 273.727 324.007 274.125 322.504 273.872 C 319.613 273.389 317.658 270.709 318.153 267.894 C 323.165 239.423 320.872 220.872 314.645 208.224 C 309.187 197.139 300.483 190.424 291.041 185.411 C 270.089 205.595 255.441 209.495 240.622 204.58 C 228.757 200.646 214.922 200.57 200.219 218.336 C 194.375 225.398 187.553 229.641 184.938 236.827 C 182.255 244.21 182.045 252.8 184.218 262.533 C 184.495 263.513 184.47 264.586 184.078 265.618 C 183.088 268.3 180.031 269.685 177.277 268.722 L 172.403 267.006 C 166.115 264.865 161.658 263.868 159.938 267.715 C 159.798 268.959 159.703 270.861 159.652 272.822 L 159.652 272.864 C 159.572 275.697 159.572 278.657 159.641 280.144 C 159.826 283.653 160.58 288.219 162.223 292.092 L 162.412 292.472 C 163.517 294.984 164.985 297.115 166.81 298.121 C 167.73 298.628 168.755 298.865 169.831 298.873 C 171.153 298.891 172.62 298.621 174.184 298.172 C 174.68 298.001 175.209 297.91 175.766 297.901 C 178.697 297.831 181.133 300.087 181.203 302.941 C 181.489 314.862 186.746 323.436 190.977 330.344 L 191.271 330.826 C 195.997 338.554 201.208 345.04 206.76 350.307 Z" style="mix-blend-mode: darken; fill: url(#gradient-0); stroke: rgb(214, 214, 214);" transform="matrix(0.999998, -0.001844, 0.001844, 0.999998, -0.48809, 0.463108)"/>
</svg>